<svg width="40" height="40" viewBox="0 0 40 40" fill="none" xmlns="http://www.w3.org/2000/svg">
<g clip-path="url(#clip0_3032_45149)">
<path d="M13.4893 21.7021C11.7933 21.1936 9.58459 23.4067 8.72771 24.5015C8.27933 25.0744 6.74223 27.0384 7.11332 29.3827C7.70031 33.0967 12.7441 35.6618 14.8798 34.4927C17.9363 32.8201 16.6175 22.6405 13.4893 21.7021Z" fill="#F3573C"/>
<path d="M13.355 22.1511C11.9136 21.7315 10.0452 23.5772 9.19755 24.6205C8.75592 25.1695 8.35478 25.7688 8.05852 26.4073C7.91008 26.7232 7.7868 27.0482 7.69663 27.3795C7.6126 27.7076 7.60831 28.0554 7.62057 28.3897C7.68068 29.7894 8.56762 30.9818 9.63979 31.8129C10.5611 32.5361 11.648 33.101 12.7827 33.3813C13.0661 33.45 13.3433 33.4954 13.593 33.5113C13.9506 33.5236 14.1702 33.5205 14.4382 33.3917C14.8584 33.1409 15.1209 32.6115 15.3031 32.1276C15.5956 31.3351 15.6576 30.4844 15.6919 29.6391C15.7711 27.6033 15.5594 25.2934 14.6283 23.4637C14.3376 22.9203 13.9224 22.3578 13.3556 22.1511H13.355ZM13.6243 21.2531C15.7263 21.8689 16.8518 25.3602 17.245 27.3003C17.3996 28.0726 17.4965 28.8534 17.5314 29.6434C17.5596 30.653 17.4554 31.6884 17.2389 32.6833C16.7242 34.9957 15.2748 36.2807 12.8606 36.0053C11.7645 35.8783 10.715 35.4257 9.79927 34.827C7.4887 33.3157 5.87308 30.5015 6.63734 27.7187C6.68334 27.523 6.7594 27.3304 6.80908 27.136C7.13356 25.9767 7.75797 24.9714 8.5161 24.063C9.63488 22.7614 11.7541 20.7483 13.6236 21.2537L13.6243 21.2531Z" fill="#F3573C"/>
<path d="M19.6066 26.7176C18.5988 28.1731 20.0212 30.9578 20.7977 32.111C21.2044 32.7145 22.5974 34.7828 24.9411 35.1551C28.655 35.7446 32.653 31.7405 32.2009 29.3477C31.5544 25.9239 21.4657 24.0329 19.6066 26.7176Z" fill="#F3573C"/>
<path d="M19.9924 26.985C19.1478 28.2265 20.3261 30.5732 21.0566 31.7025C21.4424 32.2919 21.8877 32.8593 22.4042 33.3377C22.6587 33.5763 22.9298 33.7941 23.2169 33.9824C23.5027 34.1639 23.8321 34.2749 24.1541 34.3669C25.5041 34.7423 26.9118 34.2676 28.0337 33.5039C29.0065 32.8513 29.8793 31.992 30.4964 30.9995C30.6497 30.7511 30.7779 30.5021 30.8705 30.269C30.9926 29.9323 31.0576 29.7231 31.0177 29.4281C30.9092 28.9515 30.4866 28.5375 30.083 28.2148C29.4199 27.6916 28.6299 27.3702 27.8368 27.0764C25.9249 26.3723 23.6628 25.8595 21.6344 26.1797C21.0278 26.2882 20.3647 26.509 19.9924 26.9844V26.985ZM19.2208 26.4508C20.4561 24.6419 24.1241 24.6505 26.0905 24.8762C26.8726 24.9676 27.6454 25.1173 28.4072 25.3277C29.3764 25.6129 30.3289 26.0318 31.2079 26.5452C33.248 27.7493 34.022 29.525 33.0143 31.7356C32.5549 32.7391 31.7998 33.5972 30.9472 34.2829C28.7961 36.0132 25.6201 36.68 23.2095 35.0932C23.0378 34.9889 22.8777 34.857 22.7084 34.7497C21.7061 34.083 20.9425 33.1782 20.3138 32.1766C19.4213 30.7106 18.1621 28.0731 19.2208 26.4508Z" fill="#F3573C"/>
<path d="M26.2673 22.4497C27.3401 23.858 30.4284 23.3661 31.765 22.984C32.4648 22.784 34.8625 22.0983 35.9402 19.984C37.6484 16.6337 35.0759 11.5943 32.6605 11.2851C29.2048 10.8423 24.2886 19.8527 26.2673 22.4503V22.4497Z" fill="#F3573C"/>
<path d="M26.6409 22.1651C27.5603 23.352 30.1567 22.957 31.4558 22.6111C32.1354 22.4258 32.8126 22.178 33.4272 21.8351C33.7327 21.6671 34.0234 21.4757 34.2914 21.261C34.5527 21.0451 34.76 20.766 34.9471 20.4882C35.7212 19.3203 35.7046 17.8347 35.3256 16.5319C35.0054 15.4052 34.4577 14.3097 33.7051 13.416C33.5161 13.1934 33.3186 12.9946 33.1254 12.8345C32.8433 12.6143 32.6642 12.488 32.3716 12.4346C31.8846 12.3911 31.3607 12.6646 30.9289 12.9492C30.226 13.4185 29.6764 14.0699 29.152 14.7335C27.8915 16.3338 26.7046 18.3273 26.3826 20.3551C26.2986 20.9654 26.3035 21.6646 26.6409 22.1658V22.1651ZM25.8944 22.7337C24.556 20.9997 25.6975 17.5139 26.5194 15.7137C26.8482 14.9979 27.2291 14.3091 27.6646 13.6497C28.235 12.8161 28.9281 12.0396 29.6881 11.3624C31.4632 9.79405 33.3916 9.60636 35.1827 11.2484C35.9948 11.9954 36.5775 12.9787 36.967 14.0012C37.9477 16.5816 37.6006 19.808 35.3464 21.6107C35.1943 21.7413 35.0195 21.8535 34.8643 21.9811C33.9203 22.7288 32.8242 23.1747 31.6772 23.4636C30.007 23.8593 27.1095 24.242 25.8938 22.7337H25.8944Z" fill="#F3573C"/>
<path d="M24.2664 14.7963C25.9372 14.2111 26.4237 11.1222 26.4733 9.73287C26.4991 9.00603 26.588 6.51329 24.9105 4.83449C22.2521 2.17491 16.6643 3.0643 15.6234 5.26569C14.1341 8.41535 21.1842 15.8758 24.2664 14.7963Z" fill="#F3573C"/>
<path d="M24.1112 14.3534C25.5238 13.8455 25.9507 11.254 26.0231 9.91135C26.0575 9.20782 26.0305 8.48711 25.8943 7.79645C25.8287 7.45358 25.7373 7.11806 25.6152 6.79727C25.4907 6.48199 25.2895 6.19862 25.0828 5.93487C24.2118 4.83755 22.7931 4.39408 21.4369 4.35237C20.2666 4.30882 19.0552 4.49099 17.9726 4.93078C17.7027 5.0418 17.4525 5.16815 17.2403 5.30187C16.9434 5.50244 16.768 5.6337 16.6269 5.895C16.4349 6.3446 16.533 6.9273 16.6704 7.42597C16.8992 8.2393 17.3494 8.9637 17.8187 9.66723C18.9516 11.3601 20.4801 13.1052 22.3092 14.0381C22.8636 14.3068 23.5304 14.5178 24.1106 14.3522L24.1112 14.3534ZM24.4216 15.2385C22.3588 15.9758 19.3963 13.813 17.9383 12.4746C17.3593 11.941 16.8219 11.3657 16.3294 10.748C15.713 9.94754 15.1885 9.04834 14.7794 8.11663C13.836 5.94345 14.2538 4.05182 16.3687 2.85574C17.3304 2.31413 18.4455 2.06388 19.5379 2.0099C22.2957 1.87435 25.2564 3.20168 26.274 5.90236C26.3513 6.0876 26.4034 6.28817 26.4776 6.47525C26.8966 7.60385 26.9824 8.78459 26.9027 9.96472C26.7629 11.6754 26.2317 14.5491 24.4216 15.2397V15.2385Z" fill="#F3573C"/>
<path d="M16.369 14.3337C16.3285 12.5635 13.5414 11.1466 12.2349 10.67C11.5516 10.4204 9.20853 9.56597 7.09363 10.6431C3.74278 12.3495 2.86198 17.9385 4.63401 19.6087C7.16968 21.9984 16.4432 17.5987 16.369 14.3337Z" fill="#F3573C"/>
<path d="M15.9004 14.3448C15.8538 12.8438 13.5211 11.6379 12.2668 11.1534C11.608 10.9031 10.9143 10.7062 10.2157 10.6222C9.86912 10.5787 9.52196 10.5621 9.17908 10.5787C8.84111 10.6001 8.50928 10.7038 8.19462 10.8185C6.882 11.308 6.02144 12.52 5.56326 13.797C5.16027 14.8968 4.95908 16.1051 5.04312 17.2705C5.0652 17.5613 5.10813 17.8385 5.17008 18.0814C5.26884 18.4255 5.33938 18.6328 5.54485 18.8481C5.91349 19.1701 6.49803 19.256 7.01449 19.2799C7.85849 19.3137 8.68654 19.1094 9.5011 18.8806C11.4614 18.3268 13.5935 17.4116 15.046 15.9604C15.4729 15.5157 15.8796 14.9471 15.901 14.3441L15.9004 14.3448ZM16.8383 14.3233C16.902 16.5124 13.9296 18.6617 12.2061 19.6351C11.5197 20.0209 10.8064 20.354 10.0666 20.6318C9.11529 20.9704 8.09771 21.1912 7.08503 21.293C4.72662 21.5187 3.05702 20.5367 2.57246 18.1556C2.35471 17.0736 2.46082 15.9358 2.74727 14.8796C3.47043 12.2151 5.6479 9.80887 8.53075 9.67577C8.73071 9.65921 8.93803 9.67148 9.1386 9.65921C10.3414 9.60952 11.4909 9.89229 12.5882 10.3333C14.1719 10.9951 16.7407 12.3887 16.8383 14.3233Z" fill="#F3573C"/>
</g>
<defs>
<clipPath id="clip0_3032_45149">
<rect width="36" height="36" fill="white" transform="translate(2 2)"/>
</clipPath>
</defs>
</svg>
